
<svg xmlns="http://www.w3.org/2000/svg" viewBox="0 0 754 163.41">
  <defs>
    <style>
      .cls-1{fill:#b1e9ff;}
    </style>
  </defs>
  <title>
  logo
  </title>

  <g id="logo-text">
    <path class="cls-1" d="M320,421.58a6,6,0,0,0,0-12H285.5a6,6,0,0,0,0,12h11.42V516H285.5a6,6,0,0,0,0,12H320a6,6,0,0,0,0-12H309.92V421.58Z" transform="translate(-279.5 -394)"/>
    <path class="cls-1" d="M862.67,465h-12.5V452.33a6.5,6.5,0,0,0-13,0V465H824.33a6,6,0,1,0,0,12h12.84v45.33a6.5,6.5,0,0,0,13,0V477h12.5a6,6,0,1,0,0-12Z" transform="translate(-279.5 -394)"/>
    <circle class="cls-1" cx="604.5" cy="52.67" r="10"/>
    <path class="cls-1" d="M934.29,464.33a32,32,0,1,0,32.29,32A32.19,32.19,0,0,0,934.29,464.33Zm0,52.06a20,20,0,1,1,20.29-20A20.19,20.19,0,0,1,934.29,516.39Z" transform="translate(-279.5 -394)"/>
    <path class="cls-1" d="M813,508.72a6,6,0,0,0-8.43.95,20,20,0,1,1-.38-25.2,6,6,0,1,0,9.15-7.76,32,32,0,1,0,.62,40.44A6,6,0,0,0,813,508.72Z" transform="translate(-279.5 -394)"/>
    <path class="cls-1" d="M884,464.5a6.5,6.5,0,0,0-6.5,6.5v52a6.5,6.5,0,0,0,13,0V471A6.5,6.5,0,0,0,884,464.5Z" transform="translate(-279.5 -394)"/>
    <circle class="cls-1" cx="313.5" cy="52.67" r="10"/>
    <path class="cls-1" d="M593,464.5a6.5,6.5,0,0,0-6.5,6.5v52a6.5,6.5,0,0,0,13,0V471A6.5,6.5,0,0,0,593,464.5Z" transform="translate(-279.5 -394)"/>
    <path class="cls-1" d="M492,463.83a6.5,6.5,0,0,0-6.5,6.5v2.08a32,32,0,1,0,0,49.9v0a6.5,6.5,0,0,0,13,0v-52A6.5,6.5,0,0,0,492,463.83Zm-26.71,53.56a20,20,0,1,1,20.21-21.55v3A20.2,20.2,0,0,1,465.29,517.39Z" transform="translate(-279.5 -394)"/>
    <path class="cls-1" d="M564.67,463.83a6.5,6.5,0,0,0-6.5,6.5v2.34a32,32,0,1,0,0,49.38v10.84a6.4,6.4,0,0,0-.67,2.86c0,3.53-7.21,8.66-18.5,8.66s-18.5-5.13-18.5-8.66a6.5,6.5,0,0,0-13,0c0,12.14,13.84,21.66,31.5,21.66,16,0,28.77-7.76,31.11-18.2a6.44,6.44,0,0,0,1.06-3.54V470.33A6.5,6.5,0,0,0,564.67,463.83Zm-27,53.56a20,20,0,1,1,20.29-20A20.19,20.19,0,0,1,537.62,517.39Z" transform="translate(-279.5 -394)"/>
    <path class="cls-1" d="M399.5,466.5a24.34,24.34,0,0,0-17.67,7.58,24.43,24.43,0,0,0-29.71-4.92,6.5,6.5,0,0,0-12.62,2.17v52a6.5,6.5,0,0,0,13,0v-33a11.34,11.34,0,0,1,22.67,0v.34c0,.22,0,.45,0,.67s0,.44,0,.67v31.67a6.5,6.5,0,0,0,13,0V492c0-.23,0-.45,0-.67s0-.45,0-.67a11.33,11.33,0,0,1,22.66,0,6.28,6.28,0,0,0,.34,2v31a6.5,6.5,0,0,0,13,0V492a6.39,6.39,0,0,0-.36-2.1A24.27,24.27,0,0,0,399.5,466.5Z" transform="translate(-279.5 -394)"/>
    <path class="cls-1" d="M646.25,466.5a28.17,28.17,0,0,0-15.45,4.59,6.5,6.5,0,0,0-13,.58v52a6.5,6.5,0,0,0,13,0V496.22a6.47,6.47,0,0,0,.25-1.77,15.17,15.17,0,0,1,30.34,0,6.4,6.4,0,0,0,.08,1V524a6.5,6.5,0,0,0,13,0V492.33a6.39,6.39,0,0,0-.45-2.36A28.15,28.15,0,0,0,646.25,466.5Z" transform="translate(-279.5 -394)"/>
    <path class="cls-1" d="M718.92,466.5a28.17,28.17,0,0,0-15.45,4.59,6.5,6.5,0,0,0-13,.58v52a6.5,6.5,0,1,0,13,0V496.22a6.47,6.47,0,0,0,.25-1.77,15.17,15.17,0,0,1,30.33,0,6.64,6.64,0,0,0,.09,1V524a6.5,6.5,0,0,0,13,0V492.33a6.6,6.6,0,0,0-.45-2.36A28.15,28.15,0,0,0,718.92,466.5Z" transform="translate(-279.5 -394)"/>
    <path class="cls-1" d="M1033.05,490a28.22,28.22,0,0,0-43.25-18.88,6.5,6.5,0,0,0-13,.58v52a6.5,6.5,0,0,0,13,0V496.22a6.47,6.47,0,0,0,.25-1.77,15.17,15.17,0,0,1,30.34,0,6.4,6.4,0,0,0,.08,1V524a6.5,6.5,0,0,0,13,0V492.33A6.39,6.39,0,0,0,1033.05,490Z" transform="translate(-279.5 -394)"/>
  </g>
  
  <g id="logo-nodes">
    <path class="cls-1" d="M935.91,494.58,891.2,450.32a7.69,7.69,0,0,0,.7-3.22A7.9,7.9,0,0,0,877,443.54l-160-29.8c0-.25,0-.49,0-.74a19,19,0,0,0-37.86-2.21l-239.9,14.47a29.44,29.44,0,1,0-14.71,30.23l36.63,44a4.91,4.91,0,0,0,1.66,1.3A5,5,0,0,0,466,502h70a5,5,0,0,0,0-10H467.9l-35.61-42.81a29.33,29.33,0,0,0,6.17-11.31l158.15,13.6.39,0a4.5,4.5,0,0,0,.39-9L462.21,430.89l217.42-13.11a19,19,0,0,0,36.5.89l160.1,29.82a7.88,7.88,0,0,0,12.45,5l44.41,44a2,2,0,0,0,1.41.58,2,2,0,0,0,1.41-3.42Z" transform="translate(-279.5 -394)"/>
  </g>
</svg>
